<?xml version="1.0" encoding="UTF-8" standalone="no"?>
<!DOCTYPE svg PUBLIC "-//W3C//DTD SVG 1.1//EN"
 "http://www.w3.org/Graphics/SVG/1.1/DTD/svg11.dtd">
<!-- Generated by graphviz version 2.50.0 (20211209.1537)
 -->
<!-- Title: g Pages: 1 -->
<svg width="603pt" height="896pt"
 viewBox="0.00 0.00 603.31 896.00" xmlns="http://www.w3.org/2000/svg" xmlns:xlink="http://www.w3.org/1999/xlink">
<g id="graph0" class="graph" transform="scale(1 1) rotate(0) translate(4 892)">
<title>g</title>
<g id="node1" class="node">
<title></title>
<g id="a_node1"><a xlink:href=".">
<ellipse fill="white" stroke="#666666" cx="5.5" cy="-546" rx="5.5" ry="5.5"/>
</a>
</g>
</g>
<!-- assets/ -->
<g id="node2" class="node">
<title>assets/</title>
<g id="a_node2"><a xlink:href="assets/" xlink:title="Stylesheet and fonts\l">
<polygon fill="white" stroke="#b3b3b3" points="286.28,-888 180.05,-888 180.05,-852 286.28,-852 286.28,-888"/>
<text text-anchor="start" x="187.85" y="-867" font-family="Helvetica,sans-Serif" font-size="10.00">Stylesheet and fonts</text>
</a>
</g>
</g>
<!-- &#45;&gt;assets/ -->
<g id="edge1" class="edge">
<title>&#45;&gt;assets/</title>
<path fill="none" stroke="#999999" d="M7.87,-551.19C13.21,-570.98 33.93,-643.25 65,-696 100.17,-755.72 115.12,-767.45 164.58,-816 175.8,-827.02 189.16,-838.06 201.02,-847.26"/>
<polygon fill="#999999" stroke="#999999" points="207.06,-851.9 199.06,-850.01 204.09,-849.62 201.11,-847.34 201.11,-847.34 201.11,-847.34 204.09,-849.62 203.16,-844.66 207.06,-851.9 207.06,-851.9"/>
<text text-anchor="middle" x="87.79" y="-763" font-family="Helvetica,sans-Serif" font-size="10.00">assets/</text>
</g>
<!-- feed.json -->
<g id="node3" class="node">
<title>feed.json</title>
<g id="a_node3"><a xlink:href="feed.json" xlink:title="JSON feed\l">
<polygon fill="white" stroke="#b3b3b3" points="265.57,-780 200.75,-780 200.75,-744 265.57,-744 265.57,-780"/>
<text text-anchor="start" x="208.71" y="-759" font-family="Helvetica,sans-Serif" font-size="10.00">JSON feed</text>
</a>
</g>
</g>
<!-- &#45;&gt;feed.json -->
<g id="edge2" class="edge">
<title>&#45;&gt;feed.json</title>
<path fill="none" stroke="#999999" d="M9.1,-550.21C16.79,-562.47 40.4,-598.94 65,-625 107.44,-669.95 164.48,-713.78 199.76,-739.32"/>
<polygon fill="#999999" stroke="#999999" points="206.09,-743.87 198.03,-742.23 203.04,-741.68 200,-739.49 200,-739.49 200,-739.49 203.04,-741.68 201.97,-736.75 206.09,-743.87 206.09,-743.87"/>
<text text-anchor="middle" x="87.79" y="-669" font-family="Helvetica,sans-Serif" font-size="10.00">feed.json</text>
</g>
<!-- feed.xml -->
<g id="node4" class="node">
<title>feed.xml</title>
<g id="a_node4"><a xlink:href="feed.xml" xlink:title="RSS feed\l">
<polygon fill="white" stroke="#b3b3b3" points="262.47,-672 203.86,-672 203.86,-636 262.47,-636 262.47,-672"/>
<text text-anchor="start" x="211.76" y="-651" font-family="Helvetica,sans-Serif" font-size="10.00">RSS feed</text>
</a>
</g>
</g>
<!-- &#45;&gt;feed.xml -->
<g id="edge3" class="edge">
<title>&#45;&gt;feed.xml</title>
<path fill="none" stroke="#999999" d="M10.73,-548.24C20.32,-553.3 44.5,-565.96 65,-576 110.11,-598.08 162.7,-622.39 196.66,-637.9"/>
<polygon fill="#999999" stroke="#999999" points="203.61,-641.07 195.39,-641.03 200.2,-639.52 196.79,-637.96 196.79,-637.96 196.79,-637.96 200.2,-639.52 198.19,-634.89 203.61,-641.07 203.61,-641.07"/>
<text text-anchor="middle" x="87.79" y="-598" font-family="Helvetica,sans-Serif" font-size="10.00">feed.xml</text>
</g>
<!-- images/ -->
<g id="node5" class="node">
<title>images/</title>
<g id="a_node5"><a xlink:href="images/" xlink:title="Images\l">
<polygon fill="white" stroke="#b3b3b3" points="260.16,-564 206.16,-564 206.16,-528 260.16,-528 260.16,-564"/>
<text text-anchor="start" x="216.77" y="-543" font-family="Helvetica,sans-Serif" font-size="10.00">Images</text>
</a>
</g>
</g>
<!-- &#45;&gt;images/ -->
<g id="edge4" class="edge">
<title>&#45;&gt;images/</title>
<path fill="none" stroke="#999999" d="M11.21,-546C34.97,-546 142.64,-546 198.42,-546"/>
<polygon fill="#999999" stroke="#999999" points="205.93,-546 198.43,-549.38 202.18,-546 198.43,-546 198.43,-546 198.43,-546 202.18,-546 198.43,-542.63 205.93,-546 205.93,-546"/>
<text text-anchor="middle" x="87.79" y="-549" font-family="Helvetica,sans-Serif" font-size="10.00">images/</text>
</g>
<!-- index.html -->
<g id="node6" class="node">
<title>index.html</title>
<g id="a_node6"><a xlink:href="index.html" xlink:title="Same as first page of posts\l">
<polygon fill="white" stroke="#b3b3b3" points="301.83,-456 164.49,-456 164.49,-420 301.83,-420 301.83,-456"/>
<text text-anchor="start" x="172.58" y="-435" font-family="Helvetica,sans-Serif" font-size="10.00">Same as first page of posts</text>
</a>
</g>
</g>
<!-- &#45;&gt;index.html -->
<g id="edge5" class="edge">
<title>&#45;&gt;index.html</title>
<path fill="none" stroke="#999999" d="M10.73,-543.76C20.32,-538.7 44.5,-526.04 65,-516 105.41,-496.22 151.82,-474.65 185.47,-459.22"/>
<polygon fill="#999999" stroke="#999999" points="192.45,-456.03 187.03,-462.22 189.04,-457.59 185.63,-459.15 185.63,-459.15 185.63,-459.15 189.04,-457.59 184.22,-456.08 192.45,-456.03 192.45,-456.03"/>
<text text-anchor="middle" x="87.79" y="-519" font-family="Helvetica,sans-Serif" font-size="10.00">index.html</text>
</g>
<!-- pages/ -->
<g id="node7" class="node">
<title>pages/</title>
<g id="a_node7"><a xlink:href="pages/">
<ellipse fill="white" stroke="#666666" cx="233.16" cy="-342" rx="5.5" ry="5.5"/>
</a>
</g>
</g>
<!-- &#45;&gt;pages/ -->
<g id="edge6" class="edge">
<title>&#45;&gt;pages/</title>
<path fill="none" stroke="#999999" d="M9.09,-541.72C16.72,-529.28 40.2,-492.27 65,-466 104.36,-424.31 118,-417.43 164.58,-384 183.9,-370.13 207.81,-355.92 221.39,-348.1"/>
<polygon fill="#999999" stroke="#999999" points="228.08,-344.28 223.24,-350.93 224.82,-346.14 221.57,-348 221.57,-348 221.57,-348 224.82,-346.14 219.89,-345.06 228.08,-344.28 228.08,-344.28"/>
<text text-anchor="middle" x="87.79" y="-469" font-family="Helvetica,sans-Serif" font-size="10.00">pages/</text>
</g>
<!-- posts/ -->
<g id="node10" class="node">
<title>posts/</title>
<g id="a_node10"><a xlink:href="posts/">
<ellipse fill="white" stroke="#666666" cx="233.16" cy="-180" rx="5.5" ry="5.5"/>
</a>
</g>
</g>
<!-- &#45;&gt;posts/ -->
<g id="edge9" class="edge">
<title>&#45;&gt;posts/</title>
<path fill="none" stroke="#999999" d="M7.82,-541C13.13,-521.31 34.17,-447.44 65,-393 114.11,-306.28 196.52,-217.12 223.4,-189.03"/>
<polygon fill="#999999" stroke="#999999" points="228.75,-183.48 225.97,-191.22 226.14,-186.18 223.54,-188.88 223.54,-188.88 223.54,-188.88 226.14,-186.18 221.11,-186.54 228.75,-183.48 228.75,-183.48"/>
<text text-anchor="middle" x="87.79" y="-396" font-family="Helvetica,sans-Serif" font-size="10.00">posts/</text>
</g>
<!-- pages/1.html -->
<g id="node8" class="node">
<title>pages/1.html</title>
<g id="a_node8"><a xlink:href="pages/1.html" xlink:title="First page of posts\l">
<polygon fill="white" stroke="#b3b3b3" points="588.2,-468 489.68,-468 489.68,-432 588.2,-432 588.2,-468"/>
<text text-anchor="start" x="497.81" y="-447" font-family="Helvetica,sans-Serif" font-size="10.00">First page of posts</text>
</a>
</g>
</g>
<!-- pages/&#45;&gt;pages/1.html -->
<g id="edge7" class="edge">
<title>pages/&#45;&gt;pages/1.html</title>
<path fill="none" stroke="#999999" d="M238.46,-343.53C264.51,-352.79 402.96,-402.01 482.18,-430.18"/>
<polygon fill="#999999" stroke="#999999" points="489.65,-432.83 481.46,-433.5 486.12,-431.58 482.59,-430.32 482.59,-430.32 482.59,-430.32 486.12,-431.58 483.72,-427.14 489.65,-432.83 489.65,-432.83"/>
<text text-anchor="middle" x="392.16" y="-411" font-family="Helvetica,sans-Serif" font-size="10.00">1.html</text>
</g>
<!-- pages/2.html -->
<g id="node9" class="node">
<title>pages/2.html</title>
<g id="a_node9"><a xlink:href="pages/2.html" xlink:title="Second page of posts\l">
<polygon fill="white" stroke="#b3b3b3" points="595.18,-360 482.7,-360 482.7,-324 595.18,-324 595.18,-360"/>
<text text-anchor="start" x="490.57" y="-339" font-family="Helvetica,sans-Serif" font-size="10.00">Second page of posts</text>
</a>
</g>
</g>
<!-- pages/&#45;&gt;pages/2.html -->
<g id="edge8" class="edge">
<title>pages/&#45;&gt;pages/2.html</title>
<path fill="none" stroke="#999999" d="M238.93,-342C265.37,-342 395.53,-342 475.15,-342"/>
<polygon fill="#999999" stroke="#999999" points="482.7,-342 475.2,-345.38 478.95,-342 475.2,-342 475.2,-342 475.2,-342 478.95,-342 475.2,-338.63 482.7,-342 482.7,-342"/>
<text text-anchor="middle" x="392.16" y="-345" font-family="Helvetica,sans-Serif" font-size="10.00">2.html</text>
</g>
<!-- posts/2025&#45;07&#45;04.html -->
<g id="node11" class="node">
<title>posts/2025&#45;07&#45;04.html</title>
<g id="a_node11"><a xlink:href="posts/2025-07-04.html" xlink:title="First post\l">
<polygon fill="white" stroke="#b3b3b3" points="567.56,-252 510.32,-252 510.32,-216 567.56,-216 567.56,-252"/>
<text text-anchor="start" x="518.38" y="-231" font-family="Helvetica,sans-Serif" font-size="10.00">First post</text>
</a>
</g>
</g>
<!-- posts/&#45;&gt;posts/2025&#45;07&#45;04.html -->
<g id="edge10" class="edge">
<title>posts/&#45;&gt;posts/2025&#45;07&#45;04.html</title>
<path fill="none" stroke="#999999" d="M238.93,-180.85C268.72,-186.14 430.21,-214.85 502.7,-227.74"/>
<polygon fill="#999999" stroke="#999999" points="510.25,-229.08 502.28,-231.09 506.56,-228.42 502.87,-227.77 502.87,-227.77 502.87,-227.77 506.56,-228.42 503.46,-224.44 510.25,-229.08 510.25,-229.08"/>
<text text-anchor="middle" x="392.16" y="-216" font-family="Helvetica,sans-Serif" font-size="10.00">2025&#45;07&#45;04.html</text>
</g>
<!-- posts/2025&#45;07&#45;07.html -->
<g id="node12" class="node">
<title>posts/2025&#45;07&#45;07.html</title>
<g id="a_node12"><a xlink:href="posts/2025-07-07.html" xlink:title="Second post\l">
<polygon fill="white" stroke="#b3b3b3" points="574.54,-144 503.34,-144 503.34,-108 574.54,-108 574.54,-144"/>
<text text-anchor="start" x="511.14" y="-123" font-family="Helvetica,sans-Serif" font-size="10.00">Second post</text>
</a>
</g>
</g>
<!-- posts/&#45;&gt;posts/2025&#45;07&#45;07.html -->
<g id="edge11" class="edge">
<title>posts/&#45;&gt;posts/2025&#45;07&#45;07.html</title>
<path fill="none" stroke="#999999" d="M238.93,-179.15C267.8,-174.02 420.31,-146.91 495.69,-133.51"/>
<polygon fill="#999999" stroke="#999999" points="503.18,-132.18 496.39,-136.81 499.49,-132.84 495.79,-133.49 495.79,-133.49 495.79,-133.49 499.49,-132.84 495.2,-130.17 503.18,-132.18 503.18,-132.18"/>
<text text-anchor="middle" x="392.16" y="-160" font-family="Helvetica,sans-Serif" font-size="10.00">2025&#45;07&#45;07.html</text>
</g>
<!-- posts/2025&#45;07&#45;10.html -->
<g id="node13" class="node">
<title>posts/2025&#45;07&#45;10.html</title>
<g id="a_node13"><a xlink:href="posts/2025-07-10.html" xlink:title="Third post\l">
<polygon fill="white" stroke="#b3b3b3" points="569.4,-36 508.47,-36 508.47,0 569.4,0 569.4,-36"/>
<text text-anchor="start" x="516.71" y="-15" font-family="Helvetica,sans-Serif" font-size="10.00">Third post</text>
</a>
</g>
</g>
<!-- posts/&#45;&gt;posts/2025&#45;07&#45;10.html -->
<g id="edge12" class="edge">
<title>posts/&#45;&gt;posts/2025&#45;07&#45;10.html</title>
<path fill="none" stroke="#999999" d="M238.46,-177.71C266.82,-162.58 428.34,-76.45 501.69,-37.33"/>
<polygon fill="#999999" stroke="#999999" points="508.51,-33.69 503.48,-40.2 505.2,-35.46 501.89,-37.22 501.89,-37.22 501.89,-37.22 505.2,-35.46 500.3,-34.25 508.51,-33.69 508.51,-33.69"/>
<text text-anchor="middle" x="392.16" y="-116" font-family="Helvetica,sans-Serif" font-size="10.00">2025&#45;07&#45;10.html</text>
</g>
</g>
</svg>
