<?xml version="1.0" encoding="UTF-8" standalone="no"?>
<!DOCTYPE svg PUBLIC "-//W3C//DTD SVG 1.1//EN"
 "http://www.w3.org/Graphics/SVG/1.1/DTD/svg11.dtd">
<!-- Generated by graphviz version 2.50.0 (20211209.1537)
 -->
<!-- Title: g Pages: 1 -->
<svg width="512pt" height="368pt"
 viewBox="0.00 0.00 512.34 368.00" xmlns="http://www.w3.org/2000/svg" xmlns:xlink="http://www.w3.org/1999/xlink">
<g id="graph0" class="graph" transform="scale(1 1) rotate(0) translate(4 364)">
<title>g</title>
<g id="node1" class="node">
<title></title>
<g id="a_node1"><a xlink:href=".">
<ellipse fill="white" stroke="#666666" cx="5.5" cy="-129" rx="5.5" ry="5.5"/>
</a>
</g>
</g>
<!-- markdown/ -->
<g id="node2" class="node">
<title>markdown/</title>
<g id="a_node2"><a xlink:href="markdown/">
<ellipse fill="white" stroke="#666666" cx="194.91" cy="-231" rx="5.5" ry="5.5"/>
</a>
</g>
</g>
<!-- &#45;&gt;markdown/ -->
<g id="edge1" class="edge">
<title>&#45;&gt;markdown/</title>
<path fill="none" stroke="#999999" d="M10.77,-131.32C34.17,-144.06 147.19,-205.57 183,-225.06"/>
<polygon fill="#999999" stroke="#999999" points="189.73,-228.73 181.53,-228.1 186.43,-226.93 183.14,-225.14 183.14,-225.14 183.14,-225.14 186.43,-226.93 184.75,-222.18 189.73,-228.73 189.73,-228.73"/>
<text text-anchor="middle" x="89.45" y="-189" font-family="Helvetica,sans-Serif" font-size="10.00">markdown/</text>
</g>
<!-- images/ -->
<g id="node6" class="node">
<title>images/</title>
<g id="a_node6"><a xlink:href="images/" xlink:title="Images\l">
<polygon fill="white" stroke="#b3b3b3" points="221.91,-147 167.91,-147 167.91,-111 221.91,-111 221.91,-147"/>
<text text-anchor="start" x="178.51" y="-126" font-family="Helvetica,sans-Serif" font-size="10.00">Images</text>
</a>
</g>
</g>
<!-- &#45;&gt;images/ -->
<g id="edge5" class="edge">
<title>&#45;&gt;images/</title>
<path fill="none" stroke="#999999" d="M11.05,-128.79C20.89,-128.35 44.88,-127.34 65,-127 97.25,-126.45 134.03,-127.15 160.03,-127.87"/>
<polygon fill="#999999" stroke="#999999" points="167.74,-128.09 160.14,-131.25 163.99,-127.99 160.24,-127.88 160.24,-127.88 160.24,-127.88 163.99,-127.99 160.34,-124.5 167.74,-128.09 167.74,-128.09"/>
<text text-anchor="middle" x="89.45" y="-130" font-family="Helvetica,sans-Serif" font-size="10.00">images/</text>
</g>
<!-- src/ -->
<g id="node7" class="node">
<title>src/</title>
<g id="a_node7"><a xlink:href="src/">
<ellipse fill="white" stroke="#666666" cx="194.91" cy="-21" rx="5.5" ry="5.5"/>
</a>
</g>
</g>
<!-- &#45;&gt;src/ -->
<g id="edge6" class="edge">
<title>&#45;&gt;src/</title>
<path fill="none" stroke="#999999" d="M10.77,-126.54C34.17,-113.06 147.19,-47.92 183,-27.29"/>
<polygon fill="#999999" stroke="#999999" points="189.73,-23.41 184.91,-30.08 186.48,-25.28 183.23,-27.15 183.23,-27.15 183.23,-27.15 186.48,-25.28 181.54,-24.23 189.73,-23.41 189.73,-23.41"/>
<text text-anchor="middle" x="89.45" y="-98" font-family="Helvetica,sans-Serif" font-size="10.00">src/</text>
</g>
<!-- markdown/2025&#45;07&#45;04.md -->
<g id="node3" class="node">
<title>markdown/2025&#45;07&#45;04.md</title>
<g id="a_node3"><a xlink:href="markdown/2025-07-04.md" xlink:title="First post\l">
<polygon fill="white" stroke="#b3b3b3" points="479.65,-360 422.42,-360 422.42,-324 479.65,-324 479.65,-360"/>
<text text-anchor="start" x="430.48" y="-339" font-family="Helvetica,sans-Serif" font-size="10.00">First post</text>
</a>
</g>
</g>
<!-- markdown/&#45;&gt;markdown/2025&#45;07&#45;04.md -->
<g id="edge2" class="edge">
<title>markdown/&#45;&gt;markdown/2025&#45;07&#45;04.md</title>
<path fill="none" stroke="#999999" d="M200.32,-232.93C225.58,-243.96 352.93,-299.58 415.39,-326.87"/>
<polygon fill="#999999" stroke="#999999" points="422.31,-329.89 414.09,-329.98 418.87,-328.39 415.44,-326.89 415.44,-326.89 415.44,-326.89 418.87,-328.39 416.79,-323.79 422.31,-329.89 422.31,-329.89"/>
<text text-anchor="middle" x="309.82" y="-296" font-family="Helvetica,sans-Serif" font-size="10.00">2025&#45;07&#45;04.md</text>
</g>
<!-- markdown/2025&#45;07&#45;07.md -->
<g id="node4" class="node">
<title>markdown/2025&#45;07&#45;07.md</title>
<g id="a_node4"><a xlink:href="markdown/2025-07-07.md" xlink:title="Second post\l">
<polygon fill="white" stroke="#b3b3b3" points="486.63,-252 415.44,-252 415.44,-216 486.63,-216 486.63,-252"/>
<text text-anchor="start" x="423.24" y="-231" font-family="Helvetica,sans-Serif" font-size="10.00">Second post</text>
</a>
</g>
</g>
<!-- markdown/&#45;&gt;markdown/2025&#45;07&#45;07.md -->
<g id="edge3" class="edge">
<title>markdown/&#45;&gt;markdown/2025&#45;07&#45;07.md</title>
<path fill="none" stroke="#999999" d="M200.76,-231.06C225.94,-231.35 343.15,-232.74 407.48,-233.5"/>
<polygon fill="#999999" stroke="#999999" points="415.05,-233.59 407.52,-236.87 411.3,-233.54 407.56,-233.5 407.56,-233.5 407.56,-233.5 411.3,-233.54 407.6,-230.12 415.05,-233.59 415.05,-233.59"/>
<text text-anchor="middle" x="309.82" y="-235" font-family="Helvetica,sans-Serif" font-size="10.00">2025&#45;07&#45;07.md</text>
</g>
<!-- markdown/2025&#45;07&#45;10.md -->
<g id="node5" class="node">
<title>markdown/2025&#45;07&#45;10.md</title>
<g id="a_node5"><a xlink:href="markdown/2025-07-10.md" xlink:title="Third post\l">
<polygon fill="white" stroke="#b3b3b3" points="481.5,-144 420.57,-144 420.57,-108 481.5,-108 481.5,-144"/>
<text text-anchor="start" x="428.8" y="-123" font-family="Helvetica,sans-Serif" font-size="10.00">Third post</text>
</a>
</g>
</g>
<!-- markdown/&#45;&gt;markdown/2025&#45;07&#45;10.md -->
<g id="edge4" class="edge">
<title>markdown/&#45;&gt;markdown/2025&#45;07&#45;10.md</title>
<path fill="none" stroke="#999999" d="M200.32,-229.18C225.32,-218.85 350.38,-167.18 413.48,-141.1"/>
<polygon fill="#999999" stroke="#999999" points="420.5,-138.21 414.85,-144.19 417.03,-139.64 413.56,-141.07 413.56,-141.07 413.56,-141.07 417.03,-139.64 412.28,-137.95 420.5,-138.21 420.5,-138.21"/>
<text text-anchor="middle" x="309.82" y="-200" font-family="Helvetica,sans-Serif" font-size="10.00">2025&#45;07&#45;10.md</text>
</g>
<!-- src/assets/ -->
<g id="node8" class="node">
<title>src/assets/</title>
<g id="a_node8"><a xlink:href="src/assets/" xlink:title="Stylesheet and fonts\l">
<polygon fill="white" stroke="#b3b3b3" points="504.15,-36 397.92,-36 397.92,0 504.15,0 504.15,-36"/>
<text text-anchor="start" x="405.73" y="-15" font-family="Helvetica,sans-Serif" font-size="10.00">Stylesheet and fonts</text>
</a>
</g>
</g>
<!-- src/&#45;&gt;src/assets/ -->
<g id="edge7" class="edge">
<title>src/&#45;&gt;src/assets/</title>
<path fill="none" stroke="#999999" d="M200.76,-20.94C223.8,-20.67 323.87,-19.49 390,-18.71"/>
<polygon fill="#999999" stroke="#999999" points="397.89,-18.62 390.43,-22.08 394.14,-18.66 390.39,-18.7 390.39,-18.7 390.39,-18.7 394.14,-18.66 390.35,-15.33 397.89,-18.62 397.89,-18.62"/>
<text text-anchor="middle" x="309.82" y="-24" font-family="Helvetica,sans-Serif" font-size="10.00">assets/</text>
</g>
</g>
</svg>
